<svg width="6631" height="3717" viewBox="0 0 6631 3717" fill="none" xmlns="http://www.w3.org/2000/svg">
<path d="M4721.51 1037.56C4734.65 1138.6 4741.44 1241.63 4741.44 1346.25C4741.44 2655.57 3680.03 3716.97 2370.72 3716.97C1061.41 3716.97 0 2655.57 0 1346.25C0 1241.63 6.79404 1138.6 19.9321 1037.56C33.0701 936.528 283.932 936.789 269.258 1037.56C254.583 1138.34 246.95 1241.41 246.95 1346.25C246.95 2519.18 1197.79 3470.02 2370.72 3470.02C3543.65 3470.02 4494.49 2519.18 4494.49 1346.25C4494.49 1241.41 4486.86 1138.34 4472.19 1037.56C4457.51 936.789 4708.37 936.528 4721.51 1037.56Z" fill="white"/>
<path d="M6625.91 2071.44C6603.84 1836.35 6522.45 1690.91 6320.35 1519.79C6171.62 1393.86 6055.56 1338.45 5852.45 1282.27C5530.86 1193.31 5336.85 1200.71 5031.25 1098.38C4888.05 1050.44 4783.02 1048.66 4735.23 945.147C4688.08 843.014 4713 731.211 4830.72 676.981C4914.8 638.246 4999.88 632.005 5078.99 676.981C5154.14 719.705 5106.89 795.825 5164.93 853.204C5250.12 937.419 5345.94 981.745 5480.04 968.132C5659.16 949.951 5760.71 821.771 5766.51 676.981C5771.84 544.143 5681.66 463.098 5546.89 385.83C5421.79 314.106 5318.67 310.899 5164.93 309.211C4931.42 306.647 4767.27 338.08 4601.55 470.11C4413.98 619.542 4312.43 794.194 4410.57 991.118C4460.88 1092.06 4678.95 1179.81 4897.56 1266.95C5143.63 1365.02 5463.13 1366.47 5690.12 1573.42C5838.86 1709.03 5937.86 1806.7 5947.94 1987.16C5962.21 2242.55 5759.1 2380.75 5508.69 2538.82C5164.97 2755.79 4268.48 2715.04 4268.48 2715.04C4268.48 2715.04 3416.56 3049.43 3904.48 3029.18C4392.39 3008.93 4836.64 3169.11 5406.95 3062.92C5802.91 2989.2 6106.56 2964.73 6368.09 2715.04C6579.78 2512.93 6650.63 2334.7 6625.91 2071.44Z" fill="white"/>
<path d="M3487.21 1334.69C3678.94 1327.67 3871 1368.05 4064.69 1411.43C4138.29 1427.91 4212.15 1444.83 4286.18 1459.65C4258.13 2462.65 3395.61 3267.54 2335.71 3267.54C1327.14 3267.54 497.302 2538.73 395.114 1603.93C456.839 1620.48 518.616 1637.1 580.481 1653.27C774.142 1703.89 968.302 1750.03 1162.65 1775.31C1551.52 1825.89 1940.39 1792.9 2329.13 1673.16C2522.82 1613.51 2717.78 1531.81 2910.23 1464.12C3103.45 1396.15 3295.57 1341.71 3487.21 1334.69Z" fill="white"/>
<path d="M932.713 490.911C939.619 388.483 1046.5 326.924 1120.63 382.673L1453.21 632.754C1524.2 686.137 1511.81 808.112 1430.65 854.859L1067.1 1064.25C985.937 1111 895.123 1048.47 901.736 950.385L932.713 490.911Z" fill="white"/>
<path d="M1961.77 412.711C2033.89 353.596 2143.78 410.744 2154.52 512.941L2202.57 970.44C2212.8 1067.85 2124.4 1133.77 2041.4 1090.61L1670.52 897.745C1587.52 854.585 1570.2 733.695 1638.94 677.347L1961.77 412.711Z" fill="white"/>
<ellipse cx="662.903" cy="531.458" rx="662.903" ry="531.458" transform="matrix(0.999939 -0.0110253 0.0109436 0.99994 878.59 549.833)" fill="white"/>
<path d="M1345.88 1383.3L2045.94 1218.72C2045.94 1218.72 1878.12 1676.31 1957.08 1938.94C2052.52 2256.38 2559.13 2602.49 2559.13 2602.49L1081.4 2735.43C1081.4 2735.43 907.789 2277.35 945.375 1980.1C982.628 1685.47 1345.88 1383.3 1345.88 1383.3Z" fill="white"/>
</svg>
